<?xml version="1.0" standalone="no"?>
<!DOCTYPE svg PUBLIC "-//W3C//DTD SVG 20010904//EN"
 "http://www.w3.org/TR/2001/REC-SVG-20010904/DTD/svg10.dtd">
<svg version="1.0" xmlns="http://www.w3.org/2000/svg"
 width="500.000000pt" height="500.000000pt" viewBox="0 0 500.000000 500.000000"
 preserveAspectRatio="xMidYMid meet">
<metadata>
Created by potrace 1.14, written by Peter Selinger 2001-2017
</metadata>
<g transform="translate(0.000000,500.000000) scale(0.100000,-0.100000)"
fill="#000000" stroke="none">
<path d="M3857 4198 c-3 -13 -20 -95 -36 -183 -17 -88 -33 -170 -36 -182 -5
-23 -6 -23 -204 -23 -206 0 -211 -1 -211 -41 0 -5 83 -9 194 -9 107 0 197 -3
199 -7 4 -7 -59 -352 -78 -430 -5 -23 -6 -23 -204 -23 -206 0 -211 -1 -211
-41 0 -5 85 -9 200 -9 110 0 200 -3 200 -7 0 -5 -16 -88 -35 -187 -19 -98 -35
-185 -35 -192 0 -8 10 -14 24 -14 28 0 24 -13 74 250 l27 145 228 3 c178 2
227 0 227 -10 0 -7 -16 -94 -35 -193 -19 -99 -35 -183 -35 -187 0 -5 11 -8 24
-8 30 0 27 -7 66 200 17 91 33 173 36 183 5 15 23 17 204 17 205 0 210 1 210
41 0 5 -85 9 -200 9 l-201 0 6 33 c4 17 23 120 44 227 l37 195 199 3 c200 2
214 5 215 40 0 9 -47 12 -200 12 -110 0 -200 3 -200 8 0 4 16 88 35 187 42
216 42 215 11 215 -23 0 -25 -6 -63 -202 l-39 -203 -227 -3 c-189 -2 -227 0
-227 12 0 7 16 94 35 192 19 99 35 185 35 192 0 6 -11 12 -24 12 -16 0 -26 -7
-29 -22z m420 -465 c-3 -16 -23 -119 -44 -230 l-38 -203 -227 0 c-134 0 -228
4 -228 9 0 14 79 424 85 439 3 9 59 12 231 12 l226 0 -5 -27z"/>
<path d="M1715 3939 c-391 -50 -733 -287 -942 -651 -90 -157 -177 -413 -198
-580 l-7 -58 209 0 210 0 7 78 c4 42 18 133 32 202 102 511 363 853 704 926
114 24 336 15 455 -20 247 -72 422 -209 534 -416 47 -89 64 -145 105 -350 l31
-155 46 -3 46 -3 6 443 c4 244 10 465 13 491 l7 47 -51 0 -50 0 -12 -72 c-28
-168 -77 -213 -166 -151 -143 97 -190 127 -271 167 -199 100 -452 137 -708
105z"/>
<path d="M530 2340 l0 -200 115 0 115 0 0 35 0 35 -75 0 -75 0 0 50 0 50 66 0
65 0 -3 33 c-3 32 -3 32 -65 35 l-63 3 0 44 0 45 75 0 75 0 0 35 0 35 -115 0
-115 0 0 -200z"/>
<path d="M1068 2524 c-35 -19 -48 -43 -48 -92 0 -52 28 -85 102 -123 58 -29
59 -31 56 -67 -3 -35 -5 -37 -37 -37 -33 0 -43 9 -55 48 -4 12 -16 17 -41 17
-32 0 -35 -2 -35 -29 0 -93 156 -140 227 -68 19 18 25 35 25 70 0 58 -22 91
-80 118 -62 29 -82 47 -82 74 0 50 56 59 78 12 11 -23 19 -27 52 -27 42 0 42
-2 19 61 -20 53 -119 77 -181 43z"/>
<path d="M1578 2524 c-35 -19 -48 -43 -48 -92 0 -52 28 -85 102 -123 58 -29
59 -31 56 -67 -3 -35 -5 -37 -37 -37 -33 0 -43 9 -55 48 -4 12 -16 17 -41 17
-32 0 -35 -2 -35 -29 0 -93 156 -140 227 -68 19 18 25 35 25 70 0 58 -22 91
-80 118 -62 29 -82 47 -82 74 0 50 56 59 78 12 11 -23 19 -27 52 -27 42 0 42
-2 19 61 -20 53 -119 77 -181 43z"/>
<path d="M2040 2340 l0 -200 116 0 115 0 -3 33 -3 32 -72 3 -73 3 0 49 0 50
60 0 60 0 0 35 0 35 -60 0 -60 0 0 45 0 45 75 0 75 0 0 35 0 35 -115 0 -115 0
0 -200z"/>
<path d="M2527 2534 c-4 -4 -7 -94 -7 -201 l0 -193 40 0 40 0 0 127 c0 73 4
123 9 118 5 -6 32 -63 61 -127 l53 -118 38 0 39 0 0 200 0 200 -40 0 -39 0 -3
-124 -3 -124 -55 121 c-54 120 -55 122 -90 125 -20 2 -39 0 -43 -4z"/>
<path d="M3060 2505 l0 -35 50 0 50 0 0 -165 0 -165 40 0 40 0 0 165 0 165 45
0 c45 0 45 0 45 35 l0 35 -135 0 -135 0 0 -35z"/>
<path d="M3590 2340 l0 -200 40 0 40 0 0 200 0 200 -40 0 -40 0 0 -200z"/>
<path d="M4045 2528 c-19 -54 -115 -368 -115 -377 0 -6 17 -11 38 -11 37 0 40
2 51 40 l12 40 54 0 54 0 11 -40 c10 -38 13 -40 50 -40 26 0 40 5 40 13 0 6
-27 95 -59 197 l-59 185 -36 3 c-23 2 -38 -2 -41 -10z m69 -210 c6 -27 5 -28
-29 -28 -19 0 -35 3 -35 7 0 4 8 34 17 67 l17 61 12 -40 c6 -22 14 -52 18 -67z"/>
<path d="M4497 2533 c-4 -3 -7 -93 -7 -200 l0 -193 116 0 115 0 -3 33 -3 32
-72 3 -73 3 0 164 0 165 -33 0 c-19 0 -37 -3 -40 -7z"/>
<path d="M580 1986 c0 -28 60 -251 86 -320 176 -465 538 -757 1020 -821 215
-29 422 -13 594 45 112 37 187 75 315 158 119 77 159 96 192 87 32 -8 59 -70
75 -169 l12 -76 49 0 50 0 -7 98 c-3 53 -9 283 -12 510 l-7 413 -45 -3 -46 -3
-23 -150 c-32 -208 -55 -295 -108 -403 -104 -209 -260 -332 -510 -398 -186
-49 -389 -48 -539 4 -350 121 -578 462 -670 1005 l-7 37 -209 0 c-173 0 -210
-2 -210 -14z"/>
</g>
</svg>
