<?xml version="1.0" standalone="no"?>
<!DOCTYPE svg PUBLIC "-//W3C//DTD SVG 20010904//EN"
 "http://www.w3.org/TR/2001/REC-SVG-20010904/DTD/svg10.dtd">
<svg version="1.0" xmlns="http://www.w3.org/2000/svg"
 width="500.000000pt" height="500.000000pt" viewBox="0 0 500.000000 500.000000"
 preserveAspectRatio="xMidYMid meet">
<metadata>
Created by potrace 1.14, written by Peter Selinger 2001-2017
</metadata>
<g transform="translate(0.000000,500.000000) scale(0.100000,-0.100000)"
fill="#000000" stroke="none">
<path d="M3856 4543 c-3 -10 -19 -92 -36 -183 -17 -91 -33 -173 -36 -182 -5
-16 -23 -18 -204 -18 -171 0 -199 -2 -204 -16 -17 -44 -16 -44 195 -44 186 0
200 -1 195 -17 -2 -10 -21 -103 -41 -208 -19 -104 -38 -200 -40 -212 -5 -22
-8 -23 -208 -25 -201 -3 -202 -3 -205 -25 l-3 -23 200 0 c111 0 201 -3 201 -7
-1 -5 -18 -95 -39 -200 l-38 -193 28 0 c20 0 28 6 32 23 3 12 20 102 38 199
l34 178 228 0 c125 0 227 -4 227 -9 0 -5 -16 -89 -35 -187 -19 -99 -35 -185
-35 -191 0 -20 48 -16 54 5 3 9 19 91 36 182 17 91 33 173 36 183 5 15 23 17
204 17 205 0 210 1 210 41 0 5 -86 9 -201 9 l-201 0 5 28 c3 15 23 118 44 229
l38 203 201 0 c175 0 203 2 208 16 17 44 16 44 -194 44 -110 0 -200 4 -200 8
0 5 17 95 39 200 l38 192 -28 0 c-31 0 -24 22 -77 -250 l-27 -145 -228 -3
c-178 -2 -227 0 -227 10 0 7 16 92 35 188 19 96 35 181 35 188 0 19 -48 15
-54 -5z m419 -475 c-4 -18 -23 -121 -44 -228 l-37 -195 -227 -3 c-178 -2 -227
0 -227 10 0 7 18 107 40 221 22 115 40 213 40 218 0 5 97 9 230 9 l231 0 -6
-32z"/>
<path d="M1715 3939 c-560 -72 -996 -517 -1125 -1148 -32 -158 -54 -141 185
-141 156 0 206 3 209 13 2 6 11 67 20 134 66 488 276 860 570 1004 119 58 200
73 375 66 171 -6 271 -30 416 -102 109 -54 193 -121 269 -217 104 -129 153
-260 201 -530 l17 -98 48 0 47 0 6 448 c4 246 10 464 13 485 l7 37 -51 0 -51
0 -6 -47 c-10 -76 -33 -148 -56 -176 -34 -44 -64 -36 -186 47 -200 136 -360
202 -548 225 -104 13 -259 12 -360 0z"/>
<path d="M3062 2415 c12 -27 28 -33 28 -10 0 8 -9 19 -20 25 -18 10 -19 9 -8
-15z"/>
<path d="M278 2330 c-3 -90 -1 -100 15 -100 15 0 17 11 17 100 0 80 -3 100
-14 100 -12 0 -15 -21 -18 -100z"/>
<path d="M562 2418 c-7 -7 -12 -24 -12 -39 0 -22 10 -33 50 -58 52 -32 57 -40
40 -72 -13 -23 -7 -25 14 -3 31 31 20 62 -35 96 -45 27 -50 34 -47 59 5 33 6
33 -10 17z"/>
<path d="M637 2411 c3 -12 10 -21 15 -21 13 0 6 32 -9 37 -7 3 -9 -3 -6 -16z"/>
<path d="M820 2416 c-21 -26 -7 -58 40 -91 49 -34 59 -57 38 -82 -12 -15 -11
-15 10 -4 36 19 27 69 -18 98 -56 36 -62 44 -56 69 7 28 3 30 -14 10z"/>
<path d="M897 2411 c3 -12 10 -21 15 -21 13 0 6 32 -9 37 -7 3 -9 -3 -6 -16z"/>
<path d="M1088 2330 c-3 -90 -1 -100 15 -100 15 0 17 11 17 100 0 80 -3 100
-14 100 -12 0 -15 -21 -18 -100z"/>
<path d="M1380 2426 c0 -2 30 -48 68 -102 51 -75 68 -94 70 -78 4 26 -103 184
-124 184 -8 0 -14 -2 -14 -4z"/>
<path d="M1670 2419 c0 -5 5 -7 10 -4 6 3 10 8 10 11 0 2 -4 4 -10 4 -5 0 -10
-5 -10 -11z"/>
<path d="M1738 2330 c-3 -94 -2 -100 17 -100 19 0 20 6 17 100 -3 76 -7 100
-17 100 -10 0 -14 -24 -17 -100z"/>
<path d="M1825 2420 c3 -5 8 -10 11 -10 2 0 4 5 4 10 0 6 -5 10 -11 10 -5 0
-7 -4 -4 -10z"/>
<path d="M1985 2330 c0 -93 1 -100 20 -100 19 0 20 6 17 100 -3 86 -6 100 -20
100 -15 0 -17 -13 -17 -100z"/>
<path d="M2252 2418 c3 -7 18 -52 34 -100 22 -65 33 -88 46 -88 16 0 15 7 -8
68 -15 37 -31 82 -37 100 -6 17 -17 32 -25 32 -8 0 -12 -6 -10 -12z"/>
<path d="M2505 2330 c0 -89 2 -100 18 -100 15 0 17 11 17 100 0 89 -2 100 -17
100 -16 0 -18 -11 -18 -100z"/>
<path d="M2970 2410 c-32 -32 -31 -122 3 -157 27 -30 43 -30 23 -1 -18 26 -22
129 -6 159 14 25 5 24 -20 -1z"/>
<path d="M3410 2416 c-21 -26 -7 -58 40 -91 49 -34 59 -57 38 -82 -12 -15 -11
-15 10 -4 36 19 27 69 -18 98 -56 36 -62 44 -56 69 7 28 3 30 -14 10z"/>
<path d="M3487 2411 c3 -12 10 -21 15 -21 13 0 6 32 -9 37 -7 3 -9 -3 -6 -16z"/>
<path d="M3678 2330 c-3 -94 -2 -100 17 -100 19 0 20 7 20 100 0 87 -2 100
-17 100 -14 0 -17 -14 -20 -100z"/>
<path d="M3798 2330 l-3 -100 29 0 c24 0 26 2 16 14 -7 10 -10 44 -8 100 3 75
1 86 -14 86 -14 0 -17 -14 -20 -100z"/>
<path d="M4070 2422 c0 -6 14 -47 30 -92 17 -45 28 -86 24 -91 -3 -5 6 -9 19
-9 l25 0 -38 97 c-20 53 -43 99 -49 101 -6 2 -11 -1 -11 -6z"/>
<path d="M4328 2344 c2 -56 -1 -90 -8 -100 -10 -12 -7 -14 20 -14 27 0 31 2
20 14 -6 8 -11 30 -10 48 5 82 0 138 -12 138 -10 0 -12 -22 -10 -86z"/>
<path d="M4413 2401 c13 -34 4 -61 -23 -68 -18 -5 -18 -7 7 -47 28 -44 40 -56
60 -56 7 0 -2 20 -19 45 l-32 45 22 23 c26 28 28 50 6 71 -24 25 -33 19 -21
-13z"/>
<path d="M4618 2330 c-3 -94 -2 -100 17 -100 19 0 20 6 17 100 -3 76 -7 100
-17 100 -10 0 -14 -24 -17 -100z"/>
<path d="M4698 2418 c16 -16 15 -80 0 -98 -9 -10 -6 -9 12 2 43 26 37 108 -8
108 -12 0 -13 -3 -4 -12z"/>
<path d="M546 2271 c-7 -11 21 -41 37 -40 9 0 8 2 0 6 -7 2 -13 11 -13 18 0
17 -17 28 -24 16z"/>
<path d="M810 2267 c0 -14 19 -37 31 -37 4 0 2 11 -4 25 -13 27 -27 33 -27 12z"/>
<path d="M3400 2267 c0 -14 19 -37 31 -37 4 0 2 11 -4 25 -13 27 -27 33 -27
12z"/>
<path d="M3071 2247 c-13 -21 -12 -21 5 -5 10 10 16 20 13 22 -3 3 -11 -5 -18
-17z"/>
<path d="M390 2240 c-13 -8 -12 -10 3 -10 9 0 17 5 17 10 0 12 -1 12 -20 0z"/>
<path d="M1200 2240 c-13 -8 -12 -10 3 -10 9 0 17 5 17 10 0 12 -1 12 -20 0z"/>
<path d="M1375 2240 c-3 -5 1 -10 10 -10 9 0 13 5 10 10 -3 6 -8 10 -10 10 -2
0 -7 -4 -10 -10z"/>
<path d="M2185 2240 c-3 -5 1 -10 10 -10 9 0 13 5 10 10 -3 6 -8 10 -10 10 -2
0 -7 -4 -10 -10z"/>
<path d="M2615 2240 c-3 -5 -1 -10 4 -10 6 0 11 5 11 10 0 6 -2 10 -4 10 -3 0
-8 -4 -11 -10z"/>
<path d="M580 1990 c0 -34 37 -190 66 -275 197 -587 675 -909 1309 -882 248
11 398 61 637 213 152 97 179 106 214 73 26 -25 38 -60 56 -161 l11 -68 50 0
50 0 -7 38 c-3 20 -9 247 -13 505 l-6 467 -48 0 -47 0 -7 -52 c-13 -104 -46
-284 -66 -357 -39 -146 -138 -300 -247 -386 -170 -135 -473 -215 -701 -186
-411 53 -715 412 -813 964 l-23 127 -207 0 c-202 0 -208 -1 -208 -20z"/>
</g>
</svg>
