<?xml version="1.0" standalone="no"?>
<!DOCTYPE svg PUBLIC "-//W3C//DTD SVG 20010904//EN"
 "http://www.w3.org/TR/2001/REC-SVG-20010904/DTD/svg10.dtd">
<svg version="1.0" xmlns="http://www.w3.org/2000/svg"
 width="500.000000pt" height="500.000000pt" viewBox="0 0 500.000000 500.000000"
 preserveAspectRatio="xMidYMid meet">
<metadata>
Created by potrace 1.14, written by Peter Selinger 2001-2017
</metadata>
<g transform="translate(0.000000,500.000000) scale(0.100000,-0.100000)"
fill="#000000" stroke="none">
<path d="M3857 4198 c-3 -13 -20 -95 -36 -183 -17 -88 -33 -170 -36 -182 -5
-23 -6 -23 -204 -23 -206 0 -211 -1 -211 -41 0 -5 83 -9 194 -9 107 0 197 -3
199 -7 4 -7 -59 -352 -78 -430 -5 -23 -6 -23 -204 -23 -206 0 -211 -1 -211
-41 0 -5 85 -9 200 -9 110 0 200 -3 200 -7 0 -5 -16 -88 -35 -187 -19 -98 -35
-185 -35 -192 0 -8 10 -14 24 -14 28 0 24 -13 74 250 l27 145 228 3 c178 2
227 0 227 -10 0 -7 -16 -94 -35 -193 -19 -99 -35 -183 -35 -187 0 -5 11 -8 24
-8 30 0 27 -7 66 200 17 91 33 173 36 183 5 15 23 17 204 17 205 0 210 1 210
41 0 5 -85 9 -200 9 l-201 0 6 33 c4 17 23 120 44 227 l37 195 199 3 c200 2
214 5 215 40 0 9 -47 12 -200 12 -110 0 -200 3 -200 8 0 4 16 88 35 187 42
216 42 215 11 215 -23 0 -25 -6 -63 -202 l-39 -203 -227 -3 c-189 -2 -227 0
-227 12 0 7 16 94 35 192 19 99 35 185 35 192 0 6 -11 12 -24 12 -16 0 -26 -7
-29 -22z m420 -465 c-3 -16 -23 -119 -44 -230 l-38 -203 -227 0 c-134 0 -228
4 -228 9 0 14 79 424 85 439 3 9 59 12 231 12 l226 0 -5 -27z"/>
<path d="M1715 3939 c-560 -72 -996 -517 -1125 -1148 -32 -158 -54 -141 185
-141 156 0 206 3 209 13 2 6 11 67 20 134 66 488 276 860 570 1004 119 58 200
73 375 66 171 -6 271 -30 416 -102 109 -54 193 -121 269 -217 104 -129 153
-260 201 -530 l17 -98 48 0 47 0 6 448 c4 246 10 464 13 485 l7 37 -51 0 -51
0 -6 -47 c-10 -76 -33 -148 -56 -176 -34 -44 -64 -36 -186 47 -200 136 -360
202 -548 225 -104 13 -259 12 -360 0z"/>
<path d="M530 2340 l0 -200 115 0 115 0 0 35 0 35 -75 0 -75 0 0 50 0 50 66 0
65 0 -3 33 c-3 32 -3 32 -65 35 l-63 3 0 44 0 45 75 0 75 0 0 35 0 35 -115 0
-115 0 0 -200z"/>
<path d="M1068 2524 c-35 -19 -48 -43 -48 -92 0 -52 28 -85 102 -123 58 -29
59 -31 56 -67 -3 -35 -5 -37 -37 -37 -33 0 -43 9 -55 48 -4 12 -16 17 -41 17
-32 0 -35 -2 -35 -29 0 -93 156 -140 227 -68 19 18 25 35 25 70 0 58 -22 91
-80 118 -62 29 -82 47 -82 74 0 50 56 59 78 12 11 -23 19 -27 52 -27 42 0 42
-2 19 61 -20 53 -119 77 -181 43z"/>
<path d="M1578 2524 c-35 -19 -48 -43 -48 -92 0 -52 28 -85 102 -123 58 -29
59 -31 56 -67 -3 -35 -5 -37 -37 -37 -33 0 -43 9 -55 48 -4 12 -16 17 -41 17
-32 0 -35 -2 -35 -29 0 -93 156 -140 227 -68 19 18 25 35 25 70 0 58 -22 91
-80 118 -62 29 -82 47 -82 74 0 50 56 59 78 12 11 -23 19 -27 52 -27 42 0 42
-2 19 61 -20 53 -119 77 -181 43z"/>
<path d="M2040 2340 l0 -200 116 0 115 0 -3 33 -3 32 -72 3 -73 3 0 49 0 50
60 0 60 0 0 35 0 35 -60 0 -60 0 0 45 0 45 75 0 75 0 0 35 0 35 -115 0 -115 0
0 -200z"/>
<path d="M2527 2534 c-4 -4 -7 -94 -7 -201 l0 -193 40 0 40 0 0 127 c0 73 4
123 9 118 5 -6 32 -63 61 -127 l53 -118 38 0 39 0 0 200 0 200 -40 0 -39 0 -3
-124 -3 -124 -55 121 c-54 120 -55 122 -90 125 -20 2 -39 0 -43 -4z"/>
<path d="M3060 2505 l0 -35 50 0 50 0 0 -165 0 -165 40 0 40 0 0 165 0 165 45
0 c45 0 45 0 45 35 l0 35 -135 0 -135 0 0 -35z"/>
<path d="M3590 2340 l0 -200 40 0 40 0 0 200 0 200 -40 0 -40 0 0 -200z"/>
<path d="M4045 2528 c-19 -54 -115 -368 -115 -377 0 -6 17 -11 38 -11 37 0 40
2 51 40 l12 40 54 0 54 0 11 -40 c10 -38 13 -40 50 -40 26 0 40 5 40 13 0 6
-27 95 -59 197 l-59 185 -36 3 c-23 2 -38 -2 -41 -10z m69 -210 c6 -27 5 -28
-29 -28 -19 0 -35 3 -35 7 0 4 8 34 17 67 l17 61 12 -40 c6 -22 14 -52 18 -67z"/>
<path d="M4497 2533 c-4 -3 -7 -93 -7 -200 l0 -193 116 0 115 0 -3 33 -3 32
-72 3 -73 3 0 164 0 165 -33 0 c-19 0 -37 -3 -40 -7z"/>
<path d="M580 1990 c0 -34 37 -190 66 -275 197 -587 675 -909 1309 -882 248
11 398 61 637 213 152 97 179 106 214 73 26 -25 38 -60 56 -161 l11 -68 50 0
50 0 -7 38 c-3 20 -9 247 -13 505 l-6 467 -48 0 -47 0 -7 -52 c-13 -104 -46
-284 -66 -357 -39 -146 -138 -300 -247 -386 -170 -135 -473 -215 -701 -186
-411 53 -715 412 -813 964 l-23 127 -207 0 c-202 0 -208 -1 -208 -20z"/>
</g>
</svg>
