<?xml version="1.0" encoding="UTF-8"?>
<svg id="Layer_1" data-name="Layer 1" xmlns="http://www.w3.org/2000/svg" version="1.1" viewBox="0 0 375 113">
  <defs>
    <style>
      .cls-1 {
        fill: #000;
      }

      .cls-1, .cls-2 {
        stroke-width: 0px;
      }

      .cls-2 {
        fill: #1f70b9;
      }
    </style>
  </defs>
  <path class="cls-2" d="M30.17,24.52v2.42c-3.09,0-5.23.79-6.42,2.38-1.19,1.59-1.79,4.41-1.79,8.48v42.41c0,4.05.6,6.86,1.79,8.43,1.19,1.57,3.33,2.35,6.42,2.35v2.42H5.56v-2.42c2.71,0,4.56-.77,5.55-2.32.99-1.55,1.48-4.37,1.48-8.46v-42.41c0-4.18-.49-7.03-1.46-8.56-.97-1.53-2.83-2.29-5.58-2.29v-2.42h24.61"/>
  <path class="cls-2" d="M43.06,49.9v8.97c4.89-5.98,9.94-8.97,15.14-8.97,4.04,0,7.41,1.38,10.11,4.13,2.7,2.76,4.05,6.4,4.05,10.92v18.92c0,2.9.48,4.81,1.43,5.73.95.93,2.82,1.39,5.6,1.39v2.42h-22.27v-2.42c2.7,0,4.54-.35,5.54-1.06,1-.71,1.49-2.06,1.49-4.08v-21.64c0-2.89-.87-5.2-2.61-6.91-1.74-1.71-3.96-2.57-6.67-2.57-3.89,0-7.83,2.8-11.81,8.38v20.02c0,3.39.45,5.54,1.35,6.47.9.93,2.79,1.39,5.68,1.39v2.42h-22.27v-2.42c3.21,0,5.19-.51,5.92-1.52.74-1.01,1.11-3.16,1.11-6.45v-23.42c0-2.48-.45-4.11-1.34-4.9-.89-.79-2.79-1.18-5.69-1.18v-2.42l13.19-1.21h2.05"/>
  <path class="cls-2" d="M89.94,36.6h2.34v14.5h14.06v2.42h-14.06v28.27c0,2.95.64,5.21,1.93,6.81,1.29,1.59,3.12,2.39,5.5,2.39,2.81,0,5.36-1.21,7.67-3.62l1.3,1.32c-3.64,3.95-7.84,5.93-12.6,5.93-3.57,0-6.46-1.16-8.68-3.48-2.22-2.32-3.33-5.31-3.33-8.97v-28.65h-8.2v-2c5.84-2.85,10.52-7.82,14.06-14.92"/>
  <path class="cls-2" d="M115.72,65.61h22.27v-.83c0-3.82-1.04-6.85-3.13-9.09-2.09-2.25-4.69-3.37-7.8-3.37-3.31,0-5.97,1.18-7.98,3.54-2.02,2.36-3.13,5.61-3.35,9.75M147.37,82.53v3.06c-2.54,3.25-5.13,5.56-7.77,6.95-2.64,1.38-5.8,2.08-9.5,2.08-6.54,0-11.94-2.07-16.2-6.2-4.25-4.14-6.38-9.38-6.38-15.74s2-11.8,6.02-16.19c4.01-4.39,8.93-6.58,14.75-6.58,4.78,0,8.97,1.7,12.54,5.09,3.58,3.39,5.37,7.44,5.37,12.13v.91h-30.47v.57c0,4.51.71,8.42,2.12,11.75,1.41,3.33,3.47,5.94,6.18,7.82,2.71,1.88,5.54,2.82,8.48,2.82,2.75,0,5.1-.55,7.06-1.65,1.96-1.1,4.56-3.37,7.81-6.81Z"/>
  <path class="cls-2" d="M169.63,90.98h1.17v2.42h-24.61v-2.42h2.29c2.29,0,3.85-.57,4.68-1.71.82-1.14,1.24-3.26,1.24-6.35V26.71c0-2.19-.41-3.71-1.25-4.55-.83-.84-2.26-1.26-4.3-1.26h-2.66v-2.42l14.45-1.21h1.96v67.71c0,2.32.5,3.9,1.49,4.74.99.84,2.84,1.27,5.54,1.27"/>
  <path class="cls-2" d="M191.9,90.98h1.17v2.42h-24.61v-2.42h2.29c2.29,0,3.85-.57,4.68-1.71.82-1.14,1.24-3.26,1.24-6.35V26.71c0-2.19-.42-3.71-1.25-4.55-.83-.84-2.26-1.26-4.3-1.26h-2.66v-2.42l14.45-1.21h1.96v67.71c0,2.32.5,3.9,1.49,4.74,1,.84,2.84,1.27,5.54,1.27"/>
  <path class="cls-2" d="M203.11,26.93c1.12,0,2.07.52,2.86,1.56.78,1.04,1.17,2.31,1.17,3.82s-.4,2.79-1.19,3.87c-.79,1.08-1.74,1.62-2.84,1.62s-2.12-.54-2.94-1.62-1.24-2.37-1.24-3.87.41-2.79,1.22-3.82c.81-1.04,1.8-1.56,2.96-1.56M205.05,49.9h2.09v35.31c0,2.3.59,3.84,1.77,4.62,1.18.77,3.32,1.16,6.44,1.16v2.42h-24.61v-2.42c3.47,0,5.7-.37,6.7-1.11,1-.74,1.5-2.29,1.5-4.63v-25.53c0-2.52-.46-4.18-1.37-4.98-.92-.81-3.19-1.21-6.83-1.21v-2.42l14.32-1.21Z"/>
  <path class="cls-1" d="M257.95,26.93h-9.8v53.38c0,4.19.56,7.02,1.68,8.48,1.12,1.46,3.29,2.19,6.53,2.19v2.42h-25.78v-2.42c3.19,0,5.35-.84,6.49-2.52,1.14-1.68,1.71-4.52,1.71-8.51V26.93h-9.72c-4.65,0-8.03.75-10.14,2.25-2.11,1.5-3.3,3.97-3.57,7.42h-2.34v-14.5h2.34c1.81,1.61,5.18,2.42,10.13,2.42h35.41c5.1,0,8.67-.81,10.71-2.42h2.34v14.5h-2.34c-.81-3.73-2.25-6.27-4.32-7.63-2.08-1.36-5.18-2.04-9.32-2.04"/>
  <path class="cls-1" d="M268.67,65.61h22.27v-.83c0-3.82-1.04-6.85-3.13-9.09-2.09-2.25-4.69-3.37-7.8-3.37-3.31,0-5.97,1.18-7.98,3.54-2.01,2.36-3.13,5.61-3.35,9.75M300.31,82.53v3.06c-2.54,3.25-5.13,5.56-7.76,6.95-2.64,1.38-5.8,2.08-9.5,2.08-6.54,0-11.94-2.07-16.2-6.2-4.25-4.14-6.38-9.38-6.38-15.74s2-11.8,6.01-16.19c4.01-4.39,8.93-6.58,14.75-6.58,4.79,0,8.97,1.7,12.54,5.09,3.58,3.39,5.36,7.44,5.36,12.13v.91h-30.47v.57c0,4.51.71,8.42,2.12,11.75,1.41,3.33,3.47,5.94,6.18,7.82,2.71,1.88,5.54,2.82,8.48,2.82,2.75,0,5.1-.55,7.06-1.65,1.96-1.1,4.56-3.37,7.81-6.81Z"/>
  <path class="cls-1" d="M340.16,49.9v14.5h-2.34c-.86-3.73-2.48-6.67-4.87-8.84-2.39-2.17-5.25-3.25-8.57-3.25-3.99,0-7.24,1.63-9.75,4.88-2.51,3.25-3.76,7.47-3.76,12.66,0,5.73,1.5,10.68,4.51,14.86,3.01,4.18,6.6,6.27,10.76,6.27,2.76,0,5.5-.75,8.21-2.24,2.72-1.49,5.04-3.57,6.99-6.22v3c-4.44,6.05-10.48,9.08-18.09,9.08-6.07,0-11.01-1.98-14.84-5.94-3.83-3.96-5.74-9.1-5.74-15.44s2.04-11.99,6.13-16.53c4.09-4.54,9.02-6.81,14.8-6.81,2.58,0,5.45.53,8.62,1.59,1.38.45,2.33.68,2.86.68,1.16,0,2.07-.76,2.75-2.27h2.34"/>
  <path class="cls-1" d="M351.88,36.6h2.34v14.5h14.06v2.42h-14.06v28.27c0,2.95.64,5.21,1.93,6.81,1.29,1.59,3.12,2.39,5.5,2.39,2.81,0,5.36-1.21,7.67-3.62l1.3,1.32c-3.64,3.95-7.84,5.93-12.6,5.93-3.57,0-6.46-1.16-8.68-3.48-2.22-2.32-3.33-5.31-3.33-8.97v-28.65h-8.2v-2c5.83-2.85,10.52-7.82,14.06-14.92"/>
</svg>